<svg viewBox="0 0 1024 1024" class="icon" version="1.1" xmlns="http://www.w3.org/2000/svg" fill="#000000">
    <g id="SVGRepo_bgCarrier" stroke-width="0"></g>
    <g id="SVGRepo_tracerCarrier" stroke-linecap="round" stroke-linejoin="round"></g>
    <g id="SVGRepo_iconCarrier">
        <path
            d="M934.7 589.3v-173c16.3-5.8 28-21.3 28-39.7 0-18.3-11.7-33.9-28-39.7v-86.7c0-46.3-37.6-83.8-83.9-83.8H149.7c-46.2 0-83.9 37.6-83.9 83.8v505c0 46.3 37.6 83.8 83.9 83.8h701.1c46.2 0 83.9-37.6 83.9-83.8v-86.7c16.3-5.8 28-21.3 28-39.7s-11.7-33.8-28-39.5z"
            fill="#3A5D9C"></path>
        <path
            d="M121.8 250.3c0-15.2 12.6-27.8 27.8-27.8h701.1c15.4 0 27.8 12.4 27.8 27.8v505c0 15.2-12.6 27.8-27.8 27.8h-701c-15.4 0-27.8-12.4-27.8-27.8l-0.1-505z"
            fill="#ecfafd"></path>
        <path
            d="M654.4 334.4c0-30.8 25.2-55.8 56-55.8h56.2c30.9 0 56 25 56 55.8v308.8c0 30.8-25.2 55.8-56 55.8h-56.2c-30.9 0-56-25-56-55.8V334.4zM293.5 699c-25.6-14.2-48.2-33.3-66.4-56.1h-49.2v-28h30c-10-17.4-17.8-36.2-22.9-56.1h-7.1v-28h1.7c-1.1-9.2-1.7-18.5-1.7-28s0.6-18.8 1.7-28h-1.7v-28h7.1c5.1-19.9 12.9-38.7 22.9-56.1h-30v-28h49.2c18.2-22.7 40.8-41.8 66.4-56.1H177.9v-28h448.5v28H510.8c25.6 14.2 48.2 33.3 66.4 56.1h49.2v28h-30c10 17.4 17.8 36.2 22.9 56.1h7.1v28h-1.7c1.1 9.2 1.7 18.5 1.7 28s-0.6 18.8-1.7 28h1.7v28h-7.1c-5.1 19.9-12.9 38.7-22.9 56.1h30v28h-49.2c-18.2 22.7-40.8 41.8-66.4 56.1h115.6v28H177.9v-28h115.6z"
            fill="#3A5D9C"></path>
        <path
            d="M682.4 334.4v308.8c0 15.3 12.5 27.8 28 27.8h56.2c15.4 0 28-12.5 28-27.8V334.4c0-15.3-12.5-27.8-28-27.8h-56.2c-15.4 0-28 12.5-28 27.8zM539.4 362.7c-35.4-34.7-83.9-56.1-137.3-56.1S300.2 328 264.8 362.7h274.6zM590.2 446.7c-6-20.2-15.2-39.1-27-56.1H241.1c-11.8 16.9-21 35.8-27 56.1h376.1zM596.3 530.8c1.3-9.2 2-18.5 2-28s-0.7-18.9-2-28H207.9c-1.3 9.2-2 18.5-2 28s0.7 18.9 2 28h388.4zM563.1 614.9c11.8-16.9 21-35.8 27-56.1H214c6 20.2 15.2 39.1 27 56.1h-33.2 355.3zM539.4 642.9C504 677.6 455.6 699 402.1 699s-101.9-21.4-137.3-56.1h-37.7 312.3z"
            fill="#ecfafd"></path>
    </g>
</svg>